<svg width="90" height="90" viewBox="0 0 90 90" fill="none" xmlns="http://www.w3.org/2000/svg">
<path d="M13.3649 0L0 75.7006L75.783 89.0511L89.148 13.3504L13.3649 0ZM73.1129 85.2436L3.81648 73.0383L16.035 3.81717L85.3315 16.0224L73.1129 85.2436Z" fill="#FFD000"/>
<path d="M65.8915 44.7093C66.4381 47.1639 67.1685 51.1647 68.6439 54.6437C68.2085 57.8617 68.668 62.4278 68.789 65.0225C68.5423 65.6603 68.3488 66.0178 68.3343 66.8876C68.3246 67.2934 68.3488 67.9312 68.4068 68.0472C68.373 68.0472 68.3488 68.0472 68.3149 68.0472C68.0779 68.0472 63.1537 68.0472 63.1537 68.0472C63.1537 68.0472 62.9457 67.2451 63.7294 66.9165C64.4307 66.6266 65.8674 66.0855 66.4672 64.1189C67.7103 60.0263 65.166 52.5708 62.1525 48.2269C61.9251 47.9032 61.7026 47.9999 61.7026 47.9999C61.7026 47.9999 61.4559 48.0385 61.4511 48.3864C61.4366 50.7636 61.6397 52.7351 61.9251 55.0012C60.3531 59.978 60.5707 60.7173 59.8355 64.4765C59.3663 65.0611 58.9068 65.4815 58.6601 66.472C58.5198 67.0229 58.4521 67.8878 58.4424 68.0472H53.6343C53.6343 68.0472 53.4795 67.1581 54.1809 66.9117C54.8968 66.6653 56.256 65.955 57.2476 64.4668C60.6239 57.5089 58.1763 50.1065 55.7239 43.8058C53.199 43.7381 50.6014 46.6759 45.4451 46.5744C45.4693 52.334 46.8237 59.5093 47.3267 63.771C46.2577 65.2012 46.7511 68.0424 46.7511 68.0424H41.3577C41.3577 68.0424 41.2029 67.2596 41.8027 66.96C42.7218 66.501 43.6118 66.1917 44.0907 65.235C45.9288 61.4807 44.1923 56.0159 42.4703 50.4689C42.2913 49.9374 42.2381 49.2658 41.6963 49.3479C41.2029 49.4204 41.3529 50.1258 41.3626 50.6815C41.3916 52.2374 41.4303 60.1375 41.4399 63.6212C40.0033 64.8823 40.2307 68.0472 40.2307 68.0472H34.5664C34.5664 68.0472 34.4987 67.2161 35.0211 66.9697C36.1723 66.4334 37.2123 66.0613 37.8557 64.9645C40.5886 60.2969 38.6344 51.2565 36.6561 44.9992C33.0089 44.6465 27.5768 40.8438 25.1147 35.8091C24.4665 34.4851 23.7216 32.277 23.3975 30.4457C23.2186 29.46 23.0347 27.276 21.4288 25.7975C21.1628 25.551 19.5859 24.5799 19.2038 24.3818C18.8265 24.1933 18.4879 24.0193 17.9026 23.9807C16.3644 23.8937 16.4611 23.1303 16.495 22.8791C16.5143 22.7003 16.5337 22.5505 16.6739 22.1736C16.9448 21.4536 17.6801 20.898 19.286 21.0188C20.3743 21.1009 24.1521 21.2894 24.7713 21.3908C25.3953 21.4875 25.7 21.7339 26.6045 21.8643C27.7461 21.9706 28.4136 21.7388 28.549 21.9127C28.6555 22.048 28.433 22.8597 27.7751 23.6231C27.659 23.8067 27.4897 24.0242 27.6445 24.8408C27.7606 25.4496 28.4475 28.455 28.8441 29.7451C29.8647 32.5379 31.4223 34.7944 34.2762 35.0167C37.6477 35.2728 40.6418 32.3012 43.7279 29.7403C46.8769 27.1311 51.506 26.0294 55.5014 30.0205C57.3976 31.9098 59.6759 32.5331 60.9335 33.3159C64.1599 35.3259 67.4491 39.1575 68.7938 48.2028C68.8422 48.6473 68.223 48.8213 68.0731 48.3574C67.1831 44.7867 66.2785 41.6991 65.611 41.9842C64.9338 42.2693 65.6448 43.5062 65.8819 44.7142L65.8915 44.7093Z" fill="white"/>
</svg>
