<svg width="90" height="90" viewBox="0 0 90 90" fill="none" xmlns="http://www.w3.org/2000/svg">
<path d="M13.3649 0L0 75.7006L75.783 89.0511L89.148 13.3504L13.3649 0ZM73.1129 85.2387L3.81648 73.0334L16.035 3.81234L85.3315 16.0176L73.1129 85.2387Z" fill="#FFD000"/>
<path d="M26.5609 32.8181C32.1526 32.8181 36.7044 37.3648 36.7044 42.9505C36.7044 48.5361 32.1526 53.0828 26.5609 53.0828C20.9692 53.0828 16.4175 48.5361 16.4175 42.9505C16.4175 37.3648 20.9692 32.8181 26.5609 32.8181ZM26.5609 29.832C19.3053 29.832 13.4233 35.7075 13.4233 42.9553C13.4233 50.2031 19.3053 56.0787 26.5609 56.0787C33.8166 56.0787 39.6985 50.2031 39.6985 42.9553C39.6985 35.7075 33.8166 29.832 26.5609 29.832Z" fill="white"/>
<path d="M51.0661 52.324C56.2488 52.324 60.4501 48.1272 60.4501 42.9502C60.4501 37.7732 56.2488 33.5764 51.0661 33.5764C45.8835 33.5764 41.6821 37.7732 41.6821 42.9502C41.6821 48.1272 45.8835 52.324 51.0661 52.324Z" fill="white"/>
<path d="M68.3683 39.0607C70.516 39.0607 72.2621 40.8049 72.2621 42.9502C72.2621 45.0956 70.516 46.8399 68.3683 46.8399C66.2206 46.8399 64.4744 45.0956 64.4744 42.9502C64.4744 40.8049 66.2206 39.0607 68.3683 39.0607ZM68.3683 36.8235C64.9775 36.8235 62.23 39.568 62.23 42.9551C62.23 46.3422 64.9775 49.0868 68.3683 49.0868C71.7591 49.0868 74.5066 46.3422 74.5066 42.9551C74.5066 39.568 71.7591 36.8235 68.3683 36.8235Z" fill="white"/>
</svg>
