<svg width="90" height="90" viewBox="0 0 90 90" fill="none" xmlns="http://www.w3.org/2000/svg">
<path d="M13.3649 0L0 75.7007L75.783 89.0511L89.148 13.3505L13.3649 0ZM73.1129 85.2388L3.81648 73.0335L16.035 3.8124L85.3315 16.0177L73.1129 85.2388Z" fill="#FFD000"/>
<path d="M57.1449 55.1525C57.1449 56.1055 57.04 56.9587 56.8252 57.7071C56.6105 58.4605 56.2858 59.099 55.8413 59.6229C55.3968 60.1467 54.8424 60.5459 54.1681 60.8253C53.4938 61.1047 52.6897 61.2394 51.7657 61.2394C50.9016 61.2394 50.1374 61.1046 49.4731 60.8352C48.8089 60.5658 48.2545 60.1767 47.8049 59.6628C47.3554 59.1489 47.0158 58.5253 46.786 57.7919C46.5563 57.0584 46.4414 56.2202 46.4414 55.2823C46.4414 54.4491 46.5363 53.6807 46.7261 52.9822C46.9159 52.2787 47.2006 51.6751 47.5852 51.1612C47.9648 50.6473 48.4393 50.2482 49.0086 49.9588C49.578 49.6695 50.2373 49.5247 50.9915 49.5247C51.2862 49.5247 51.5809 49.5546 51.8856 49.6095C52.1902 49.6644 52.4749 49.7443 52.7496 49.8541C53.0243 49.9588 53.2791 50.0935 53.5188 50.2531C53.7585 50.4128 53.9683 50.5874 54.1481 50.787V48.8113C54.1481 48.0978 53.9833 47.564 53.6487 47.2048C53.314 46.8505 52.7696 46.6709 52.0154 46.6709C51.5659 46.6709 51.1863 46.7607 50.8766 46.9403C50.567 47.1199 50.4171 47.3544 50.4171 47.6488C50.4171 47.7336 50.4221 47.8134 50.4371 47.8782C50.4521 47.9431 50.4571 48.008 50.4571 48.0629C50.4571 48.2076 50.3422 48.3123 50.1175 48.3772C49.8927 48.442 49.5031 48.477 48.9587 48.477C48.6041 48.477 48.3244 48.467 48.1196 48.4471C47.9148 48.4271 47.765 48.3822 47.6601 48.3174C47.5552 48.2525 47.4903 48.1477 47.4653 48.013C47.4353 47.8783 47.4254 47.6987 47.4254 47.4642C47.4254 46.8855 47.5652 46.3916 47.8399 45.9824C48.1146 45.5733 48.4842 45.239 48.9337 44.9846C49.3882 44.7252 49.9027 44.5405 50.4821 44.4208C51.0614 44.301 51.6508 44.2412 52.2552 44.2412C53.2241 44.2412 54.0233 44.3659 54.6526 44.6154C55.2819 44.8649 55.7814 45.1891 56.151 45.5833C56.5206 45.9774 56.7753 46.4214 56.9251 46.9154C57.07 47.4093 57.1449 47.8932 57.1449 48.3772V55.1426V55.1525ZM54.1431 53.561C53.7635 53.102 53.374 52.7378 52.9794 52.4684C52.5848 52.199 52.1503 52.0643 51.6808 52.0643C51.3811 52.0643 51.0964 52.1191 50.8267 52.2288C50.562 52.3386 50.3272 52.5182 50.1324 52.7677C49.9327 53.0172 49.7778 53.3364 49.6629 53.7306C49.5481 54.1247 49.4881 54.5987 49.4881 55.1525C49.4881 55.6764 49.5281 56.1653 49.603 56.6144C49.6779 57.0684 49.8078 57.4576 49.9926 57.7869C50.1774 58.1162 50.4171 58.3756 50.7218 58.5652C51.0265 58.7548 51.4111 58.8495 51.8706 58.8495C52.3001 58.8495 52.6597 58.7697 52.9494 58.605C53.2391 58.4404 53.4738 58.2059 53.6537 57.8966C53.8335 57.5873 53.9583 57.2131 54.0332 56.774C54.1082 56.335 54.1481 55.8311 54.1481 55.2723V53.561H54.1431Z" fill="white"/>
<path d="M70.5508 59.683C70.5508 60.5311 70.4209 61.3094 70.1562 62.0179C69.8965 62.7263 69.5169 63.34 69.0174 63.8489C68.5229 64.3628 67.9136 64.757 67.1894 65.0364C66.4651 65.3158 65.646 65.4604 64.727 65.4604C63.808 65.4604 63.0488 65.3357 62.3596 65.0862C61.6703 64.8367 61.0859 64.4726 60.6164 63.9986C60.1419 63.5246 59.7823 62.9409 59.5376 62.2573C59.2928 61.5688 59.168 60.7905 59.168 59.9075C59.168 59.0244 59.2978 58.271 59.5576 57.5725C59.8173 56.8691 60.1919 56.2703 60.6813 55.7714C61.1708 55.2725 61.7802 54.8833 62.4944 54.6138C63.2136 54.3394 64.0328 54.2048 64.9518 54.2048C65.1915 54.2048 65.4263 54.2147 65.666 54.2397C65.8158 54.0551 65.9207 53.8455 65.9807 53.606C66.0406 53.3665 66.0706 53.1521 66.0706 52.9675C66.0706 52.4037 65.9457 51.9945 65.691 51.7351C65.4362 51.4756 65.0467 51.351 64.5272 51.351C64.0977 51.351 63.753 51.4358 63.4883 51.6005C63.2236 51.7651 63.0888 52.0096 63.0888 52.3239C63.0888 52.4087 63.0888 52.4785 63.0987 52.5334C63.1087 52.5833 63.1087 52.6332 63.1087 52.6681C63.1087 52.703 63.0588 52.7479 62.9589 52.7828C62.859 52.8178 62.7341 52.8527 62.5843 52.8826C62.4345 52.9125 62.2696 52.9426 62.0848 52.9625C61.9 52.9825 61.7302 52.9924 61.5704 52.9924C61.2457 52.9924 60.961 52.9775 60.7113 52.9425C60.4666 52.9126 60.3167 52.8178 60.2718 52.6581C60.2418 52.5533 60.2218 52.3987 60.2218 52.1941C60.2218 51.8 60.3167 51.4258 60.5065 51.0716C60.6963 50.7173 60.981 50.408 61.3506 50.1435C61.7202 49.8791 62.1897 49.6696 62.7541 49.5149C63.3185 49.3602 63.9728 49.2854 64.717 49.2854C65.5761 49.2854 66.2803 49.3902 66.8397 49.6048C67.3991 49.8193 67.8437 50.0937 68.1733 50.423C68.5029 50.7572 68.7327 51.1264 68.8676 51.5305C69.0024 51.9347 69.0723 52.3289 69.0723 52.7081C69.0723 53.182 68.9974 53.606 68.8426 53.9802C68.6877 54.3544 68.483 54.6887 68.2283 54.993C68.9824 55.447 69.5568 56.0607 69.9464 56.849C70.341 57.6323 70.5358 58.5804 70.5358 59.6929L70.5508 59.683ZM67.4541 59.8127C67.4541 59.3287 67.4091 58.8846 67.3192 58.4755C67.2293 58.0664 67.0795 57.7122 66.8797 57.4178C66.6799 57.1235 66.4102 56.8889 66.0805 56.7293C65.7509 56.5646 65.3463 56.4848 64.8719 56.4848C63.9978 56.4848 63.3435 56.7742 62.909 57.3579C62.4694 57.9416 62.2547 58.745 62.2547 59.7777C62.2547 60.2667 62.2996 60.7207 62.3895 61.1298C62.4794 61.5389 62.6293 61.8882 62.829 62.1826C63.0288 62.4769 63.2985 62.7014 63.6282 62.861C63.9578 63.0207 64.3624 63.1005 64.8369 63.1005C65.7159 63.1005 66.3752 62.8161 66.8048 62.2524C67.2393 61.6836 67.4541 60.8754 67.4541 59.8227V59.8127Z" fill="white"/>
<path d="M30.5508 59.051C23.0924 59.051 17.5508 55.3226 17.5508 49.7929C17.5508 46.1064 19.9674 43.7605 22.8008 42.5456C20.7174 41.4145 18.5924 39.3618 18.5924 36.3456C18.5924 31.7794 23.3841 28.051 30.5508 28.051C37.7174 28.051 42.5091 31.7794 42.5091 36.3456C42.5091 39.3618 40.3841 41.4145 38.3008 42.5456C41.1341 43.7605 43.5508 46.1064 43.5508 49.7929C43.5508 55.3226 38.0091 59.051 30.5508 59.051ZM30.5508 53.6051C34.0508 53.6051 36.6758 52.097 36.6758 49.4578C36.6758 46.7767 34.0508 45.3105 30.5508 45.3105C27.0508 45.3105 24.4258 46.7767 24.4258 49.4578C24.4258 52.097 27.0508 53.6051 30.5508 53.6051ZM30.5508 39.8645C33.8424 39.8645 35.6758 38.524 35.6758 36.6808C35.6758 34.8375 33.8424 33.497 30.5508 33.497C27.2591 33.497 25.4258 34.8375 25.4258 36.6808C25.4258 38.524 27.2591 39.8645 30.5508 39.8645Z" fill="white"/>
</svg>
