<svg width="90" height="90" viewBox="0 0 90 90" fill="none" xmlns="http://www.w3.org/2000/svg">
<path d="M13.3649 0L0 75.7006L75.783 89.0509L89.148 13.3504L13.3649 0ZM73.1129 85.2387L3.81648 73.0334L16.035 3.81228L85.3315 16.0175L73.1129 85.2387Z" fill="#FFD000"/>
<path d="M66.0486 60.9541L66.808 58.0598H66.1647L65.4052 60.9541C65.2892 61.4035 65.5117 61.7513 65.9083 61.7513H67.9302L68.085 61.1425H66.2469C66.097 61.1425 66.0292 61.0217 66.0486 60.9541Z" fill="white"/>
<path d="M15.0609 58.0598H14.5433L13.8516 60.7222C13.7887 60.9686 13.8322 61.2101 13.9822 61.3986C14.1563 61.6257 14.4466 61.7513 14.79 61.7513H16.0912L16.2556 61.1231H14.8819C14.7465 61.1231 14.6352 61.0796 14.5772 61.0023C14.5336 60.9492 14.5191 60.8767 14.5433 60.7946L15.2447 58.0598H15.056H15.0609Z" fill="white"/>
<path d="M69.614 58.0598H69.0915L68.4095 60.7222C68.3418 60.9686 68.3902 61.2101 68.5353 61.3986C68.7094 61.6257 69.0045 61.7513 69.3479 61.7513H70.6491L70.8136 61.1231H69.4301C69.2995 61.1231 69.1883 61.0796 69.1302 61.0023C69.0867 60.9492 69.0722 60.8767 69.0915 60.7946L69.8026 58.0598H69.6188H69.614Z" fill="white"/>
<path d="M22.0262 58.0547C21.4022 58.0547 20.7831 58.4847 20.6476 59.0162L20.6041 59.1901C20.5364 59.4365 20.5847 59.6782 20.7347 59.8666C20.9088 60.0937 21.2039 60.2193 21.5425 60.2193H23.0226C23.1532 60.2193 23.2693 60.2628 23.3225 60.3401C23.3709 60.3981 23.3806 60.4706 23.3612 60.5527L23.3177 60.7219C23.2597 60.9393 22.9839 61.1228 22.7179 61.1228H20.4106L20.251 61.751H22.626C23.25 61.751 23.8691 61.321 24.0046 60.7895L24.0481 60.6203C24.111 60.3691 24.0626 60.1275 23.9175 59.9391C23.7434 59.7168 23.4483 59.5912 23.1097 59.5912H21.6296C21.499 59.5912 21.3877 59.5429 21.3248 59.4656C21.2813 59.4076 21.2668 59.3351 21.291 59.2578L21.3345 59.0887C21.3925 58.8712 21.6634 58.6876 21.9343 58.6876H24.1303L24.2948 58.0595H22.0262V58.0547Z" fill="white"/>
<path d="M25.8617 58.0547C25.2329 58.0547 24.6186 58.4847 24.4831 59.0162L24.4396 59.1901C24.3719 59.4365 24.4202 59.6782 24.5702 59.8666C24.7443 60.0937 25.0394 60.2193 25.378 60.2193H26.8581C26.9936 60.2193 27.1048 60.2628 27.1629 60.3401C27.2064 60.3981 27.2209 60.4706 27.1967 60.5527L27.1532 60.7219C27.1 60.9393 26.8243 61.1228 26.5486 61.1228H24.2509L24.0913 61.751H26.4663C27.0855 61.751 27.7095 61.321 27.8449 60.7895L27.8884 60.6203C27.9513 60.3691 27.9078 60.1275 27.7578 59.9391C27.5837 59.7168 27.2935 59.5912 26.95 59.5912H25.4699C25.3344 59.5912 25.228 59.5429 25.1651 59.4656C25.1216 59.4076 25.1119 59.3351 25.1313 59.2578L25.1748 59.0887C25.2329 58.8712 25.5086 58.6876 25.7795 58.6876H27.9755L28.1351 58.0595H25.8665L25.8617 58.0547Z" fill="white"/>
<path d="M23.1872 34.0068H20.58L17.1312 47.3717C16.8022 48.6135 17.0393 49.8311 17.7842 50.7878C18.65 51.904 20.1253 52.5418 21.8377 52.5418H28.3678L29.1852 49.3865H22.2778C21.6152 49.3865 21.0637 49.1691 20.7687 48.7826C20.5413 48.4926 20.4736 48.1303 20.5849 47.7292L24.1208 34.0068H23.1921H23.1872Z" fill="white"/>
<path d="M39.2119 33.9971C36.0823 33.9971 32.9865 36.1521 32.2997 38.8096L32.0772 39.6697C31.7579 40.9163 31.9901 42.1291 32.7302 43.0858C33.6008 44.202 35.0713 44.8397 36.7837 44.8397H44.2135C44.8713 44.8397 45.4324 45.062 45.7275 45.4485C45.9548 45.7336 46.0177 46.096 45.9113 46.4922C45.9113 46.497 45.6936 47.3571 45.6936 47.3571C45.4082 48.4491 44.0248 49.3721 42.6753 49.3721H31.1339L30.3213 52.5272H42.2351C45.3599 52.5272 48.4556 50.3673 49.1376 47.7146L49.3553 46.8594C49.6794 45.6128 49.4521 44.4001 48.7071 43.4434C47.8365 42.3272 46.3611 41.6845 44.6585 41.6845H37.219C36.5563 41.6845 36.0097 41.4622 35.7098 41.0757C35.4873 40.7906 35.4196 40.4234 35.5212 40.0224L35.7485 39.1671C36.0291 38.0703 37.4077 37.1523 38.762 37.1523H49.7713L50.5839 33.9971H39.2071H39.2119Z" fill="white"/>
<path d="M58.9379 33.9971C55.8131 33.9971 52.7174 36.1521 52.0257 38.8096L51.808 39.6697C51.4839 40.9163 51.7209 42.1291 52.4514 43.0858C53.3269 44.202 54.807 44.8397 56.5097 44.8397H63.9395C64.5973 44.8397 65.1536 45.062 65.4535 45.4485C65.6809 45.7336 65.7437 46.096 65.6373 46.4922C65.6373 46.497 65.4148 47.3571 65.4148 47.3571C65.1294 48.4491 63.7508 49.3721 62.3965 49.3721H50.8503L50.0425 52.5272H61.9563C65.0859 52.5272 68.1768 50.3673 68.8637 47.7146L69.0813 46.8594C69.3958 45.6128 69.1684 44.4001 68.4283 43.4434C67.5625 42.3272 66.0823 41.6845 64.3845 41.6845H56.9547C56.2872 41.6845 55.7406 41.4622 55.4359 41.0757C55.2085 40.7906 55.1408 40.4234 55.2472 40.0224L55.4745 39.1671C55.7551 38.0703 57.1385 37.1523 58.4881 37.1523H69.4925L70.3148 33.9971H58.9379Z" fill="white"/>
<path d="M54.3236 58.0547C53.7045 58.0547 53.0805 58.4847 52.9499 59.0162L52.9064 59.1901C52.8387 59.4365 52.887 59.6782 53.037 59.8666C53.2111 60.0937 53.5013 60.2193 53.8448 60.2193H55.3249C55.4555 60.2193 55.5668 60.2628 55.6297 60.3401C55.6732 60.3981 55.6829 60.4706 55.6635 60.5527L55.62 60.7219C55.562 60.9393 55.2862 61.1228 55.0202 61.1228H52.7177L52.5581 61.751H54.9331C55.5571 61.751 56.1763 61.321 56.3117 60.7895L56.3552 60.6203C56.4181 60.3691 56.3746 60.1275 56.2295 59.9391C56.0553 59.7168 55.7603 59.5912 55.4217 59.5912H53.9415C53.8061 59.5912 53.6997 59.5429 53.6368 59.4656C53.5933 59.4076 53.5787 59.3351 53.5981 59.2578L53.6416 59.0887C53.6997 58.8712 53.9705 58.6876 54.2414 58.6876H56.4423L56.6068 58.0595H54.3333L54.3236 58.0547Z" fill="white"/>
<path d="M18.253 58.6827H20.3233L20.4829 58.0547H18.34C17.7209 58.0547 17.0969 58.4847 16.9615 59.0162L16.5165 60.7267C16.4487 60.9731 16.4971 61.2147 16.6422 61.4031C16.8164 61.6302 17.1114 61.7558 17.45 61.7558H19.5106L19.6751 61.1277H17.5371C17.4016 61.1277 17.2952 61.0842 17.2372 61.0069C17.1937 60.9537 17.1791 60.8813 17.1985 60.7991C17.1985 60.7991 17.271 60.5383 17.3533 60.2242H19.9266L20.0862 59.596H17.5226C17.5951 59.3158 17.6532 59.0935 17.6532 59.0935C17.7064 58.8761 17.9821 58.6924 18.253 58.6924V58.6827Z" fill="white"/>
<path d="M48.8865 58.6827H50.9567L51.1212 58.0547H48.9735C48.3544 58.0547 47.7352 58.4847 47.595 59.0162L47.1499 60.7267C47.0871 60.9731 47.1306 61.2147 47.2805 61.4031C47.4547 61.6302 47.7497 61.7558 48.0883 61.7558H50.149L50.3086 61.1277H48.1754C48.0448 61.1277 47.9287 61.0842 47.8755 61.0069C47.8271 60.9537 47.8175 60.8813 47.8368 60.7991C47.8368 60.7991 47.9045 60.5383 47.9868 60.2242H50.5601L50.7246 59.596H48.1609C48.2335 59.3158 48.2867 59.0935 48.2867 59.0935C48.3447 58.8761 48.6204 58.6924 48.8913 58.6924L48.8865 58.6827Z" fill="white"/>
<path d="M63.3689 58.6827H65.4392L65.6036 58.0547H63.4559C62.8368 58.0547 62.2176 58.4847 62.0822 59.0162L61.6324 60.7267C61.5695 60.9731 61.613 61.2147 61.763 61.4031C61.9371 61.6302 62.2322 61.7558 62.5756 61.7558H64.6314L64.791 61.1277H62.6578C62.5272 61.1277 62.416 61.0842 62.3579 61.0069C62.3144 60.9537 62.2999 60.8813 62.3192 60.7991C62.3192 60.7991 62.387 60.5383 62.4692 60.2242H65.0425L65.2022 59.596H62.6385C62.711 59.3158 62.7691 59.0935 62.7691 59.0935C62.8223 58.8761 63.098 58.6924 63.3689 58.6924V58.6827Z" fill="white"/>
<path d="M43.3387 58.4172C43.1645 58.1901 42.8695 58.0645 42.5309 58.0645H41.3119C40.6879 58.0645 40.0736 58.4945 39.9382 59.026L39.4883 60.7364C39.4254 60.9828 39.469 61.2245 39.6189 61.4177C39.7882 61.64 40.0881 61.7704 40.4267 61.7704H41.6408C42.2648 61.7704 42.884 61.3404 43.0194 60.8089L43.4644 59.1033C43.5321 58.852 43.4838 58.6153 43.3387 58.422V58.4172ZM42.3277 60.7315C42.2745 60.949 41.9988 61.1326 41.7279 61.1326H40.5089C40.3783 61.1326 40.2671 61.0891 40.209 61.0118C40.1655 60.9538 40.1558 60.8814 40.1752 60.8041L40.625 59.0936C40.6831 58.8761 40.954 58.6877 41.2248 58.6877H42.439C42.5696 58.6877 42.6808 58.736 42.7389 58.8085C42.7824 58.8664 42.7969 58.939 42.7775 59.0163L42.3277 60.722V60.7315Z" fill="white"/>
<path d="M38.9707 58.0595L36.6924 60.833L35.8701 58.0595V58.0692V58.0547H35.1638L34.2109 61.7462H34.9172C34.9849 61.4756 35.3235 60.171 35.575 59.1901L36.3344 61.7462H36.6875L38.6272 59.3786L38.0177 61.7462H38.7288C38.8401 61.2968 39.6817 58.0547 39.6817 58.0547H38.9755L38.9707 58.0595Z" fill="white"/>
<path d="M61.1099 58.0595L58.8364 60.833L58.0141 58.0595V58.0692V58.0547H57.3079L56.355 61.7462H57.0612C57.1289 61.4756 57.4675 60.171 57.7142 59.1901L58.4736 61.7462H58.8268L60.7664 59.3786L60.1521 61.7462H60.8583C60.9696 61.2968 61.8112 58.0547 61.8112 58.0547H61.105L61.1099 58.0595Z" fill="white"/>
<path d="M32.1888 58.0547C31.5648 58.0547 30.9456 58.4847 30.8102 59.0162L30.7666 59.1901C30.7038 59.4365 30.7473 59.6782 30.8924 59.8666C31.0665 60.0937 31.3616 60.2193 31.7002 60.2193H33.1852C33.3158 60.2193 33.427 60.2628 33.4851 60.3401C33.5286 60.3981 33.5431 60.4706 33.519 60.5527L33.4754 60.7219C33.4174 60.9393 33.1417 61.1228 32.8708 61.1228H30.5683L30.4087 61.751H32.7837C33.4077 61.751 34.0268 61.321 34.1623 60.7895L34.201 60.6203C34.2687 60.3691 34.2203 60.1275 34.0752 59.9391C33.8962 59.7168 33.606 59.5912 33.2626 59.5912H31.7824C31.6518 59.5912 31.5406 59.5429 31.4825 59.4656C31.439 59.4076 31.4245 59.3351 31.4438 59.2578L31.4874 59.0887C31.5406 58.8712 31.8163 58.6876 32.0872 58.6876H34.2881L34.4477 58.0595H32.1791L32.1888 58.0547Z" fill="white"/>
<path d="M47.9724 58.0598H46.9179L44.5574 59.5818C44.7702 58.7749 44.954 58.0598 44.954 58.0598H44.2478L43.29 61.7513H44.0011C44.0398 61.5725 44.1994 60.9685 44.3736 60.3017L45.0894 59.8862L46.2213 61.7513H46.9469L45.6215 59.5866L47.9724 58.0598Z" fill="white"/>
</svg>
