<svg width="218" height="188" viewBox="0 0 218 188" fill="none" xmlns="http://www.w3.org/2000/svg">
<g filter="url(#filter0_d_3321_1380)">
<path d="M126.05 141.053H15.7072C11.9183 141.053 8.7998 137.943 8.7998 134.146V12.7068C8.7998 8.90885 11.9183 5.80005 15.7072 5.80005H173.47C177.262 5.80005 180.381 8.90885 180.381 12.7068V94.6451M180.381 22.1967L94.5883 68.8161L8.7998 22.1967M152.392 134.155H181.877M208.8 134.151C208.8 157.151 190.152 175.8 167.144 175.8C144.13 175.8 125.478 157.151 125.478 134.151C125.478 111.138 144.13 92.4961 167.144 92.4961C190.152 92.4961 208.8 111.138 208.8 134.151Z" stroke="white" stroke-width="6" stroke-miterlimit="10" shape-rendering="crispEdges"/>
</g>
<defs>
<filter id="filter0_d_3321_1380" x="-0.000195503" y="4.86374e-05" width="217.6" height="187.6" filterUnits="userSpaceOnUse" color-interpolation-filters="sRGB">
<feFlood flood-opacity="0" result="BackgroundImageFix"/>
<feColorMatrix in="SourceAlpha" type="matrix" values="0 0 0 0 0 0 0 0 0 0 0 0 0 0 0 0 0 0 127 0" result="hardAlpha"/>
<feOffset dy="3"/>
<feGaussianBlur stdDeviation="2.9"/>
<feComposite in2="hardAlpha" operator="out"/>
<feColorMatrix type="matrix" values="0 0 0 0 0 0 0 0 0 0 0 0 0 0 0 0 0 0 0.3 0"/>
<feBlend mode="normal" in2="BackgroundImageFix" result="effect1_dropShadow_3321_1380"/>
<feBlend mode="normal" in="SourceGraphic" in2="effect1_dropShadow_3321_1380" result="shape"/>
</filter>
</defs>
</svg>
