<svg width="198" height="191" viewBox="0 0 198 191" fill="none" xmlns="http://www.w3.org/2000/svg">
<g filter="url(#filter0_d_3321_1408)">
<path d="M46.8046 136.288C45.9522 146.943 43.3951 158.45 37.4284 170.81C34.0189 177.629 35.7236 179.76 42.1165 176.35C59.5903 166.974 72.8022 157.598 82.6046 149.074C87.7188 149.926 93.2593 150.779 98.7998 150.779C147.812 150.779 188.3 117.962 188.3 78.3262C188.3 38.6905 147.385 6.30005 98.3736 6.30005C49.3617 6.30005 9.2998 38.6905 9.2998 78.3262C9.2998 102.193 24.6427 123.502 46.8046 136.288Z" stroke="white" stroke-width="7" stroke-miterlimit="10" shape-rendering="crispEdges"/>
</g>
<g filter="url(#filter1_d_3321_1408)">
<path d="M73.2275 82.59L90.2752 99.6377L124.37 61.2805" stroke="white" stroke-width="7" stroke-miterlimit="10" shape-rendering="crispEdges"/>
</g>
<defs>
<filter id="filter0_d_3321_1408" x="-0.000195503" y="4.86374e-05" width="197.6" height="190.246" filterUnits="userSpaceOnUse" color-interpolation-filters="sRGB">
<feFlood flood-opacity="0" result="BackgroundImageFix"/>
<feColorMatrix in="SourceAlpha" type="matrix" values="0 0 0 0 0 0 0 0 0 0 0 0 0 0 0 0 0 0 127 0" result="hardAlpha"/>
<feOffset dy="3"/>
<feGaussianBlur stdDeviation="2.9"/>
<feComposite in2="hardAlpha" operator="out"/>
<feColorMatrix type="matrix" values="0 0 0 0 0 0 0 0 0 0 0 0 0 0 0 0 0 0 0.3 0"/>
<feBlend mode="normal" in2="BackgroundImageFix" result="effect1_dropShadow_3321_1408"/>
<feBlend mode="normal" in="SourceGraphic" in2="effect1_dropShadow_3321_1408" result="shape"/>
</filter>
<filter id="filter1_d_3321_1408" x="64.9529" y="56.1553" width="67.8334" height="57.382" filterUnits="userSpaceOnUse" color-interpolation-filters="sRGB">
<feFlood flood-opacity="0" result="BackgroundImageFix"/>
<feColorMatrix in="SourceAlpha" type="matrix" values="0 0 0 0 0 0 0 0 0 0 0 0 0 0 0 0 0 0 127 0" result="hardAlpha"/>
<feOffset dy="3"/>
<feGaussianBlur stdDeviation="2.9"/>
<feComposite in2="hardAlpha" operator="out"/>
<feColorMatrix type="matrix" values="0 0 0 0 0.560784 0 0 0 0 0.12549 0 0 0 0 0.133333 0 0 0 0.5 0"/>
<feBlend mode="normal" in2="BackgroundImageFix" result="effect1_dropShadow_3321_1408"/>
<feBlend mode="normal" in="SourceGraphic" in2="effect1_dropShadow_3321_1408" result="shape"/>
</filter>
</defs>
</svg>
