<svg width="187" height="208" viewBox="0 0 187 208" fill="none" xmlns="http://www.w3.org/2000/svg">
<g filter="url(#filter0_d_3321_1391)">
<path d="M157.856 149.61C169.413 148.193 177.8 144.266 177.8 139.566V125.467M121.117 125.467V134.914M157.856 164.303C169.413 162.887 177.8 158.96 177.8 154.26V140.161M157.856 177.95C169.413 176.533 177.8 172.606 177.8 167.906V153.807M88.576 158.006V171.811C88.576 177.547 101.259 182.149 116.918 182.149C132.577 182.149 145.259 177.484 145.259 171.811V158.006M88.576 171.648V185.453C88.576 191.189 101.259 195.791 116.918 195.791C132.577 195.791 145.259 191.126 145.259 185.453V171.648M119.017 32.649V23.0372C119.017 13.5536 111.269 5.80005 101.648 5.80005H26.1685C16.6125 5.80005 8.7998 13.4895 8.7998 23.0372V178.556C8.7998 188.04 16.548 195.794 26.1685 195.794H76.273M68.6321 178.999H60.2346M73.8804 22.5936H53.9363M88.576 138.061V46.7382H155.756V101.48M140.011 104.535C136.209 98.8149 129.747 95.0232 122.397 95.0232C110.676 95.0232 101.172 104.663 101.172 116.552C101.172 123.043 104.023 128.892 108.522 132.812M144.209 89.7751V69.7654C137.979 69.7654 132.968 64.6482 132.968 58.2845H112.413C112.413 64.6482 107.403 69.7654 101.172 69.7654V89.7751M177.8 125.465C177.8 131.262 165.111 135.962 149.458 135.962C133.806 135.962 121.117 131.262 121.117 125.465C121.117 119.668 133.806 114.968 149.458 114.968C165.111 114.968 177.8 119.668 177.8 125.465ZM145.259 158.004C145.259 163.802 132.57 168.501 116.918 168.501C101.265 168.501 88.576 163.802 88.576 158.004C88.576 152.207 101.265 147.508 116.918 147.508C132.57 147.508 145.259 152.207 145.259 158.004Z" stroke="white" stroke-width="6" stroke-miterlimit="10" stroke-linecap="round" stroke-linejoin="round" shape-rendering="crispEdges"/>
</g>
<defs>
<filter id="filter0_d_3321_1391" x="-0.000195503" y="4.86374e-05" width="186.6" height="207.593" filterUnits="userSpaceOnUse" color-interpolation-filters="sRGB">
<feFlood flood-opacity="0" result="BackgroundImageFix"/>
<feColorMatrix in="SourceAlpha" type="matrix" values="0 0 0 0 0 0 0 0 0 0 0 0 0 0 0 0 0 0 127 0" result="hardAlpha"/>
<feOffset dy="3"/>
<feGaussianBlur stdDeviation="2.9"/>
<feComposite in2="hardAlpha" operator="out"/>
<feColorMatrix type="matrix" values="0 0 0 0 0 0 0 0 0 0 0 0 0 0 0 0 0 0 0.3 0"/>
<feBlend mode="normal" in2="BackgroundImageFix" result="effect1_dropShadow_3321_1391"/>
<feBlend mode="normal" in="SourceGraphic" in2="effect1_dropShadow_3321_1391" result="shape"/>
</filter>
</defs>
</svg>
