<svg width="90" height="90" viewBox="0 0 90 90" fill="none" xmlns="http://www.w3.org/2000/svg">
<path d="M13.3649 0L0 75.7006L75.783 89.0511L89.148 13.3504L13.3649 0ZM73.1129 85.2387L3.81648 73.0334L16.035 3.81228L85.3315 16.0175L73.1129 85.2387Z" fill="#FFD000"/>
<path d="M76.1211 38.4893C76.1211 38.5518 76.1094 38.6143 76.0859 38.6768C76.0625 38.7314 76.0156 38.7822 75.9453 38.8291C75.8828 38.876 75.7891 38.915 75.6641 38.9463C75.5391 38.9697 75.375 38.9814 75.1719 38.9814C74.9688 38.9814 74.8047 38.9697 74.6797 38.9463C74.5547 38.915 74.457 38.876 74.3867 38.8291C74.3242 38.7822 74.2812 38.7314 74.2578 38.6768C74.2344 38.6143 74.2227 38.5518 74.2227 38.4893V34.3174C74.0742 34.3018 73.9219 34.29 73.7656 34.2822C73.6172 34.2666 73.4609 34.2588 73.2969 34.2588C73.2031 34.2588 73.1211 34.2588 73.0508 34.2588C72.9883 34.2588 72.8945 34.2666 72.7695 34.2822V38.4893C72.7695 38.5518 72.7578 38.6143 72.7344 38.6768C72.7109 38.7314 72.6641 38.7822 72.5938 38.8291C72.5312 38.876 72.4375 38.915 72.3125 38.9463C72.1875 38.9697 72.0234 38.9814 71.8203 38.9814C71.6172 38.9814 71.4531 38.9697 71.3281 38.9463C71.2031 38.915 71.1055 38.876 71.0352 38.8291C70.9727 38.7822 70.9297 38.7314 70.9062 38.6768C70.8828 38.6143 70.8711 38.5518 70.8711 38.4893V34.8213C70.4727 35.001 70.125 35.2432 69.8281 35.5479C69.5312 35.8525 69.2852 36.2041 69.0898 36.6025C68.8945 37.001 68.7461 37.4385 68.6445 37.915C68.5508 38.3838 68.5039 38.876 68.5039 39.3916C68.5039 39.9541 68.582 40.5088 68.7383 41.0557C68.8945 41.5947 69.1289 42.1025 69.4414 42.5791C69.7617 43.0557 70.1523 43.4932 70.6133 43.8916C71.082 44.29 71.6289 44.626 72.2539 44.8994H79.4258C79.5664 44.8994 79.6797 44.9854 79.7656 45.1572C79.8516 45.3291 79.8945 45.6416 79.8945 46.0947C79.8945 46.54 79.8477 46.8486 79.7539 47.0205C79.668 47.1924 79.5586 47.2783 79.4258 47.2783H65.9844C65.8516 47.2783 65.7383 47.1924 65.6445 47.0205C65.5586 46.8486 65.5156 46.54 65.5156 46.0947C65.5156 45.6416 65.5547 45.3291 65.6328 45.1572C65.7188 44.9854 65.8359 44.8994 65.9844 44.8994H68.082C67.6758 44.6104 67.3047 44.2705 66.9688 43.8799C66.6406 43.4814 66.3594 43.0479 66.125 42.5791C65.8906 42.1025 65.7109 41.5947 65.5859 41.0557C65.4609 40.5166 65.3984 39.9619 65.3984 39.3916C65.3984 38.5166 65.5078 37.6963 65.7266 36.9307C65.9531 36.1572 66.293 35.4619 66.7461 34.8447C67.1992 34.2197 67.7656 33.6807 68.4453 33.2275C69.1328 32.7666 69.9414 32.4111 70.8711 32.1611V30.7432C70.8711 30.6885 70.8828 30.6338 70.9062 30.5791C70.9297 30.5166 70.9727 30.4619 71.0352 30.415C71.1055 30.3682 71.2031 30.333 71.3281 30.3096C71.4531 30.2783 71.6172 30.2627 71.8203 30.2627C72.0234 30.2627 72.1875 30.2783 72.3125 30.3096C72.4375 30.333 72.5312 30.3682 72.5938 30.415C72.6641 30.4619 72.7109 30.5166 72.7344 30.5791C72.7578 30.6338 72.7695 30.6885 72.7695 30.7432V31.8682C72.8711 31.8604 72.9727 31.8564 73.0742 31.8564C73.1836 31.8486 73.293 31.8447 73.4023 31.8447C73.543 31.8447 73.6797 31.8486 73.8125 31.8564C73.9531 31.8643 74.0898 31.8721 74.2227 31.8799V30.7432C74.2227 30.6885 74.2344 30.6338 74.2578 30.5791C74.2812 30.5166 74.3242 30.4619 74.3867 30.415C74.457 30.3682 74.5547 30.333 74.6797 30.3096C74.8047 30.2783 74.9688 30.2627 75.1719 30.2627C75.375 30.2627 75.5391 30.2783 75.6641 30.3096C75.7891 30.333 75.8828 30.3682 75.9453 30.415C76.0156 30.4619 76.0625 30.5166 76.0859 30.5791C76.1094 30.6338 76.1211 30.6885 76.1211 30.7432V32.2197C76.8555 32.4385 77.5117 32.751 78.0898 33.1572C78.6758 33.5635 79.168 34.0322 79.5664 34.5635C79.9727 35.0869 80.2812 35.6572 80.4922 36.2744C80.7031 36.8838 80.8086 37.5049 80.8086 38.1377C80.8086 38.4111 80.7148 38.6221 80.5273 38.7705C80.3398 38.9111 80 38.9814 79.5078 38.9814C79.2578 38.9814 79.0391 38.9736 78.8516 38.958C78.6641 38.9424 78.5039 38.9111 78.3711 38.8643C78.2461 38.8096 78.1484 38.7354 78.0781 38.6416C78.0078 38.54 77.9648 38.4072 77.9492 38.2432C77.9102 37.8916 77.8438 37.5557 77.75 37.2354C77.6562 36.9072 77.5312 36.5986 77.375 36.3096C77.2266 36.0205 77.0469 35.7588 76.8359 35.5244C76.625 35.29 76.3867 35.0908 76.1211 34.9268V38.4893Z" fill="white"/>
<path d="M37.6627 33.8554L35.9956 39.0712C34.0759 38.1519 31.2799 36.9039 28.1504 36.9039C23.8967 36.9039 21.2674 39.1999 20.5148 44.249C22.5154 42.7867 25.0637 42.0387 27.9408 42.0387C34.1569 42.0387 39.206 45.4588 39.206 51.594C39.206 58.1436 33.49 62.3592 26.2736 62.3592C17.9283 62.3592 13.5508 56.686 13.5508 48.0072C13.5508 38.5377 18.7238 31.488 27.736 31.488C31.1989 31.488 35.1191 32.5312 37.6675 33.8649L37.6627 33.8554ZM20.8482 52.0417C20.8482 54.9188 23.1822 56.967 26.6452 56.967C30.1081 56.967 32.2754 55.0045 32.2754 52.0417C32.2754 48.7455 29.5222 47.2879 26.5165 47.2879C23.0965 47.2879 20.8434 49.2504 20.8434 52.0417H20.8482Z" fill="white"/>
<path d="M42.8215 43.344C44.1838 43.344 45.3032 44.4158 45.3032 45.7781C45.3032 47.1404 44.1838 48.2121 42.8215 48.2121C41.4592 48.2121 40.3398 47.1928 40.3398 45.7781C40.3398 44.3634 41.4116 43.344 42.8215 43.344Z" fill="white"/>
<path d="M60.6508 31.6692L59.6791 34.7082C58.5597 34.1747 56.9307 33.4411 55.1063 33.4411C52.6246 33.4411 51.0956 34.7796 50.6574 37.7233C51.8244 36.8707 53.3105 36.4325 54.9872 36.4325C58.6121 36.4325 61.5511 38.4284 61.5511 42.0009C61.5511 45.8211 58.2215 48.2742 54.0107 48.2742C49.1474 48.2742 46.5942 44.9684 46.5942 39.9097C46.5942 34.3891 49.6094 30.2783 54.8634 30.2783C56.883 30.2783 59.1694 30.888 60.6508 31.6644V31.6692ZM50.8479 42.2771C50.8479 43.9538 52.2102 45.1446 54.2298 45.1446C56.2495 45.1446 57.5118 44.0014 57.5118 42.2771C57.5118 40.3575 55.9065 39.5049 54.1536 39.5049C52.1578 39.5049 50.8479 40.648 50.8479 42.2771Z" fill="white"/>
</svg>
